<svg xmlns="http://www.w3.org/2000/svg" xmlns:xlink="http://www.w3.org/1999/xlink" width="1040" height="928.4"><rect width="1040" height="928.4" rx="5" ry="5" class="a"/><svg y="0%" x="0%"><circle cx="20" cy="20" r="6" fill="#ff5f58"/><circle cx="40" cy="20" r="6" fill="#ffbd2e"/><circle cx="60" cy="20" r="6" fill="#18c132"/></svg><svg height="868.4" viewBox="0 0 100 86.84" width="1000" x="15" xmlns="http://www.w3.org/2000/svg" xmlns:xlink="http://www.w3.org/1999/xlink" y="50"><style>@keyframes h{0%{transform:translateX(-100px)}1.1%{transform:translateX(-200px)}2.5%{transform:translateX(-300px)}3.3%{transform:translateX(-400px)}4.4%{transform:translateX(-500px)}5.8%{transform:translateX(-600px)}6.9%{transform:translateX(-700px)}8%{transform:translateX(-800px)}9.2%{transform:translateX(-900px)}10.5%{transform:translateX(-1000px)}11.6%{transform:translateX(-1100px)}12.5%{transform:translateX(-1200px)}13.3%{transform:translateX(-1300px)}14.5%{transform:translateX(-1400px)}15.9%{transform:translateX(-1500px)}17.3%{transform:translateX(-1600px)}18.5%{transform:translateX(-1700px)}19.3%{transform:translateX(-1800px)}20.4%{transform:translateX(-1900px)}22%{transform:translateX(-2000px)}22.8%{transform:translateX(-2100px)}23.9%{transform:translateX(-2200px)}25.5%{transform:translateX(-2300px)}26.9%{transform:translateX(-2400px)}28.3%{transform:translateX(-2500px)}29.9%{transform:translateX(-2600px)}30.6%{transform:translateX(-2700px)}32.1%{transform:translateX(-2800px)}32.9%{transform:translateX(-2900px)}33.8%{transform:translateX(-3000px)}34.9%{transform:translateX(-3100px)}36.1%{transform:translateX(-3200px)}37.6%{transform:translateX(-3300px)}38.9%{transform:translateX(-3400px)}40.4%{transform:translateX(-3500px)}41.9%{transform:translateX(-3600px)}42.9%{transform:translateX(-3700px)}44.5%{transform:translateX(-3800px)}45.8%{transform:translateX(-3900px)}47.4%{transform:translateX(-4000px)}48.9%{transform:translateX(-4100px)}49.8%{transform:translateX(-4200px)}50.8%{transform:translateX(-4300px)}51.5%{transform:translateX(-4400px)}52.5%{transform:translateX(-4500px)}53.3%{transform:translateX(-4600px)}54.6%{transform:translateX(-4700px)}55.5%{transform:translateX(-4800px)}56.4%{transform:translateX(-4900px)}57.8%{transform:translateX(-5000px)}58.5%{transform:translateX(-5100px)}59.7%{transform:translateX(-5200px)}61.3%{transform:translateX(-5300px)}62.1%{transform:translateX(-5400px)}63.1%{transform:translateX(-5500px)}64.7%{transform:translateX(-5600px)}65.6%{transform:translateX(-5700px)}66.5%{transform:translateX(-5800px)}67.9%{transform:translateX(-5900px)}68.6%{transform:translateX(-6000px)}70%{transform:translateX(-6100px)}70.7%{transform:translateX(-6200px)}72.4%{transform:translateX(-6300px)}73.7%{transform:translateX(-6400px)}74.4%{transform:translateX(-6500px)}75.1%{transform:translateX(-6600px)}76.4%{transform:translateX(-6700px)}77.3%{transform:translateX(-6800px)}78.6%{transform:translateX(-6900px)}79.3%{transform:translateX(-7000px)}80.5%{transform:translateX(-7100px)}81.5%{transform:translateX(-7200px)}82.4%{transform:translateX(-7300px)}83.4%{transform:translateX(-7400px)}91.9%{transform:translateX(-7500px)}92.9%{transform:translateX(-7600px)}93.9%{transform:translateX(-7700px)}94.9%{transform:translateX(-7800px)}95.9%{transform:translateX(-7900px)}97%{transform:translateX(-8000px)}98%{transform:translateX(-8100px)}99%{transform:translateX(-8200px)}to{transform:translateX(-8300px)}}.a{fill:#282d35}.f{fill:#b9c0cb;white-space:pre}</style><g font-family="Monaco,Consolas,Menlo,'Bitstream Vera Sans Mono','Powerline Symbols',monospace" font-size="1.67"><defs><symbol id="1"><text y="1.67" class="f">$</text></symbol><symbol id="2"><text y="1.67" class="f">$</text><text x="2.004" y="1.67" class="f">greenlight</text></symbol><symbol id="3"><text y="1.67" class="f">$</text><text x="2.004" y="1.67" class="f">greenlight</text><text x="13.026" y="1.67" class="f">scan</text></symbol><symbol id="4"><text y="1.67" class="f">$</text><text x="2.004" y="1.67" class="f">greenlight</text><text x="13.026" y="1.67" class="f">scan</text><text x="18.036" y="1.67" class="f">127.0.0.1:8791</text></symbol><symbol id="5"><text y="1.67" class="f">$</text><text x="2.004" y="1.67" class="f">greenlight</text><text x="13.026" y="1.67" class="f">scan</text><text x="18.036" y="1.67" class="f">127.0.0.1:8791</text><text x="33.066" y="1.67" class="f">--scheme</text></symbol><symbol id="6"><text y="1.67" class="f">$</text><text x="2.004" y="1.67" class="f">greenlight</text><text x="13.026" y="1.67" class="f">scan</text><text x="18.036" y="1.67" class="f">127.0.0.1:8791</text><text x="33.066" y="1.67" class="f">--scheme</text><text x="42.084" y="1.67" class="f">http</text></symbol><symbol id="7"><text y="1.67" class="f">$</text><text x="2.004" y="1.67" class="f">greenlight</text><text x="13.026" y="1.67" class="f">scan</text><text x="18.036" y="1.67" class="f">127.0.0.1:8791</text><text x="33.066" y="1.67" class="f">--scheme</text><text x="42.084" y="1.67" class="f">http</text><text x="47.094" y="1.67" class="f">--modules</text></symbol><symbol id="8"><text y="1.67" class="f">$</text><text x="2.004" y="1.67" class="f">greenlight</text><text x="13.026" y="1.67" class="f">scan</text><text x="18.036" y="1.67" class="f">127.0.0.1:8791</text><text x="33.066" y="1.67" class="f">--scheme</text><text x="42.084" y="1.67" class="f">http</text><text x="47.094" y="1.67" class="f">--modules</text><text x="57.114" y="1.67" class="f">headers,exposure</text></symbol><symbol id="9"><text x="73.146" y="1.67" class="f">===========================</text></symbol><symbol id="10"><text y="1.67" class="f">=======================================</text></symbol><symbol id="11"><text x="1.002" y="1.67" class="f">GREENLIGHT</text><text x="12.024" y="1.67" class="f">—</text><text x="14.028" y="1.67" class="f">Authorized-use</text><text x="29.058" y="1.67" class="f">reconnaissance</text><text x="44.088" y="1.67" class="f">scanner</text></symbol><symbol id="12"><text x="1.002" y="1.67" class="f">Only</text><text x="6.012" y="1.67" class="f">scan</text><text x="11.022" y="1.67" class="f">systems</text><text x="19.038" y="1.67" class="f">you</text><text x="23.046" y="1.67" class="f">own</text><text x="27.054" y="1.67" class="f">or</text><text x="30.06" y="1.67" class="f">have</text><text x="35.07" y="1.67" class="f">explicit</text><text x="44.088" y="1.67" class="f">written</text><text x="52.104" y="1.67" class="f">permission</text><text x="63.126" y="1.67" class="f">to</text><text x="66.132" y="1.67" class="f">test.</text></symbol><symbol id="13"><text x="1.002" y="1.67" class="f">Unauthorized</text><text x="14.028" y="1.67" class="f">scanning</text><text x="23.046" y="1.67" class="f">of</text><text x="26.052" y="1.67" class="f">systems</text><text x="34.068" y="1.67" class="f">you</text><text x="38.076" y="1.67" class="f">do</text><text x="41.082" y="1.67" class="f">not</text><text x="45.09" y="1.67" class="f">control</text><text x="53.106" y="1.67" class="f">may</text><text x="57.114" y="1.67" class="f">be</text><text x="60.12" y="1.67" class="f">illegal.</text></symbol><symbol id="14"><text y="1.67" class="f">==================================================================</text></symbol><symbol id="15"><text y="1.67" class="f">Target:</text><text x="8.016" y="1.67" class="f">127.0.0.1</text></symbol><symbol id="16"><text y="1.67" class="f">Authorization:</text><text x="15.03" y="1.67" class="f">literal</text><text x="23.046" y="1.67" class="f">IP</text><text x="26.052" y="1.67" class="f">127.0.0.1</text><text x="36.072" y="1.67" class="f">is</text><text x="39.078" y="1.67" class="f">in</text><text x="42.084" y="1.67" class="f">a</text><text x="44.088" y="1.67" class="f">private/loopback</text><text x="61.122" y="1.67" class="f">range</text></symbol><symbol id="17"><text y="1.67" class="f">---</text><text x="4.008" y="1.67" class="f">headers</text><text x="12.024" y="1.67" class="f">---</text></symbol><symbol id="18"><text x="2.004" y="1.67" class="f">[MEDIUM]</text><text x="11.022" y="1.67" class="f">Missing</text><text x="19.038" y="1.67" class="f">Content-Security-Policy</text><text x="43.086" y="1.67" class="f">header</text></symbol><symbol id="19"><text x="6.012" y="1.67" class="f">Content-Security-Policy</text><text x="30.06" y="1.67" class="f">restricts</text><text x="40.08" y="1.67" class="f">which</text><text x="46.092" y="1.67" class="f">sources</text><text x="54.108" y="1.67" class="f">of</text><text x="57.114" y="1.67" class="f">scripts/styles/frames</text><text x="79.158" y="1.67" class="f">the</text><text x="83.166" y="1.67" class="f">browser</text><text x="91.182" y="1.67" class="f">will</text><text x="96.192" y="1.67" class="f">exec</text></symbol><symbol id="20"><text y="1.67" class="f">ute</text><text x="4.008" y="1.67" class="f">or</text><text x="7.014" y="1.67" class="f">render.</text><text x="15.03" y="1.67" class="f">Without</text><text x="23.046" y="1.67" class="f">it,</text><text x="27.054" y="1.67" class="f">a</text><text x="29.058" y="1.67" class="f">single</text><text x="36.072" y="1.67" class="f">injected-HTML</text><text x="50.1" y="1.67" class="f">bug</text><text x="54.108" y="1.67" class="f">(e.g.</text><text x="60.12" y="1.67" class="f">reflected/stored</text><text x="77.154" y="1.67" class="f">XSS)</text><text x="82.164" y="1.67" class="f">can</text><text x="86.172" y="1.67" class="f">run</text><text x="90.18" y="1.67" class="f">arbitrary</text></symbol><symbol id="21"><text y="1.67" class="f">attacker</text><text x="9.018" y="1.67" class="f">script</text><text x="16.032" y="1.67" class="f">with</text><text x="21.042" y="1.67" class="f">no</text><text x="24.048" y="1.67" class="f">defense-in-depth</text><text x="41.082" y="1.67" class="f">backstop.</text></symbol><symbol id="22"><text x="2.004" y="1.67" class="f">[MEDIUM]</text><text x="11.022" y="1.67" class="f">Missing</text><text x="19.038" y="1.67" class="f">X-Frame-Options</text><text x="35.07" y="1.67" class="f">header</text></symbol><symbol id="23"><text x="6.012" y="1.67" class="f">X-Frame-Options</text><text x="22.044" y="1.67" class="f">(or</text><text x="26.052" y="1.67" class="f">a</text><text x="28.056" y="1.67" class="f">frame-ancestors</text><text x="44.088" y="1.67" class="f">CSP</text><text x="48.096" y="1.67" class="f">directive)</text><text x="59.118" y="1.67" class="f">prevents</text><text x="68.136" y="1.67" class="f">the</text><text x="72.144" y="1.67" class="f">page</text><text x="77.154" y="1.67" class="f">from</text><text x="82.164" y="1.67" class="f">being</text><text x="88.176" y="1.67" class="f">embedded</text><text x="97.194" y="1.67" class="f">in</text></symbol><symbol id="24"><text y="1.67" class="f">a</text><text x="2.004" y="1.67" class="f">hidden</text><text x="9.018" y="1.67" class="f">iframe</text><text x="16.032" y="1.67" class="f">on</text><text x="19.038" y="1.67" class="f">an</text><text x="22.044" y="1.67" class="f">attacker&apos;s</text><text x="33.066" y="1.67" class="f">site,</text><text x="39.078" y="1.67" class="f">which</text><text x="45.09" y="1.67" class="f">is</text><text x="48.096" y="1.67" class="f">the</text><text x="52.104" y="1.67" class="f">basis</text><text x="58.116" y="1.67" class="f">of</text><text x="61.122" y="1.67" class="f">clickjacking</text><text x="74.148" y="1.67" class="f">attacks.</text></symbol><symbol id="25"><text x="2.004" y="1.67" class="f">[LOW]</text><text x="8.016" y="1.67" class="f">Missing</text><text x="16.032" y="1.67" class="f">X-Content-Type-Options</text><text x="39.078" y="1.67" class="f">header</text></symbol><symbol id="26"><text x="6.012" y="1.67" class="f">X-Content-Type-Options:</text><text x="30.06" y="1.67" class="f">nosniff</text><text x="38.076" y="1.67" class="f">stops</text><text x="44.088" y="1.67" class="f">browsers</text><text x="53.106" y="1.67" class="f">from</text><text x="58.116" y="1.67" class="f">MIME-sniffing</text><text x="72.144" y="1.67" class="f">a</text><text x="74.148" y="1.67" class="f">response</text><text x="83.166" y="1.67" class="f">into</text><text x="88.176" y="1.67" class="f">a</text><text x="90.18" y="1.67" class="f">different</text></symbol><symbol id="27"><text y="1.67" class="f">content</text><text x="8.016" y="1.67" class="f">type</text><text x="13.026" y="1.67" class="f">than</text><text x="18.036" y="1.67" class="f">declared,</text><text x="28.056" y="1.67" class="f">which</text><text x="34.068" y="1.67" class="f">can</text><text x="38.076" y="1.67" class="f">turn</text><text x="43.086" y="1.67" class="f">an</text><text x="46.092" y="1.67" class="f">innocuous</text><text x="56.112" y="1.67" class="f">upload/response</text><text x="72.144" y="1.67" class="f">into</text><text x="77.154" y="1.67" class="f">executable</text><text x="88.176" y="1.67" class="f">script</text><text x="95.19" y="1.67" class="f">in</text><text x="98.196" y="1.67" class="f">so</text></symbol><symbol id="28"><text y="1.67" class="f">me</text><text x="3.006" y="1.67" class="f">legacy</text><text x="10.02" y="1.67" class="f">browser</text><text x="18.036" y="1.67" class="f">behaviors.</text></symbol><symbol id="29"><text x="2.004" y="1.67" class="f">[LOW]</text><text x="8.016" y="1.67" class="f">Missing</text><text x="16.032" y="1.67" class="f">Referrer-Policy</text><text x="32.064" y="1.67" class="f">header</text></symbol><symbol id="30"><text x="6.012" y="1.67" class="f">Referrer-Policy</text><text x="22.044" y="1.67" class="f">controls</text><text x="31.062" y="1.67" class="f">how</text><text x="35.07" y="1.67" class="f">much</text><text x="40.08" y="1.67" class="f">of</text><text x="43.086" y="1.67" class="f">the</text><text x="47.094" y="1.67" class="f">current</text><text x="55.11" y="1.67" class="f">URL</text><text x="59.118" y="1.67" class="f">(which</text><text x="66.132" y="1.67" class="f">may</text><text x="70.14" y="1.67" class="f">contain</text><text x="78.156" y="1.67" class="f">tokens</text><text x="85.17" y="1.67" class="f">or</text><text x="88.176" y="1.67" class="f">sensitive</text><text x="98.196" y="1.67" class="f">pa</text></symbol><symbol id="31"><text y="1.67" class="f">ths)</text><text x="5.01" y="1.67" class="f">is</text><text x="8.016" y="1.67" class="f">leaked</text><text x="15.03" y="1.67" class="f">to</text><text x="18.036" y="1.67" class="f">third</text><text x="24.048" y="1.67" class="f">parties</text><text x="32.064" y="1.67" class="f">via</text><text x="36.072" y="1.67" class="f">the</text><text x="40.08" y="1.67" class="f">Referer</text><text x="48.096" y="1.67" class="f">header</text><text x="55.11" y="1.67" class="f">on</text><text x="58.116" y="1.67" class="f">outbound</text><text x="67.134" y="1.67" class="f">navigation/requests.</text></symbol><symbol id="32"><text x="2.004" y="1.67" class="f">[INFO]</text><text x="9.018" y="1.67" class="f">Missing</text><text x="17.034" y="1.67" class="f">Permissions-Policy</text><text x="36.072" y="1.67" class="f">header</text></symbol><symbol id="33"><text x="6.012" y="1.67" class="f">Permissions-Policy</text><text x="25.05" y="1.67" class="f">lets</text><text x="30.06" y="1.67" class="f">a</text><text x="32.064" y="1.67" class="f">site</text><text x="37.074" y="1.67" class="f">explicitly</text><text x="48.096" y="1.67" class="f">disable</text><text x="56.112" y="1.67" class="f">powerful</text><text x="65.13" y="1.67" class="f">browser</text><text x="73.146" y="1.67" class="f">features</text><text x="82.164" y="1.67" class="f">(camera,</text><text x="91.182" y="1.67" class="f">geolocati</text></symbol><symbol id="34"><text y="1.67" class="f">on,</text><text x="4.008" y="1.67" class="f">etc.)</text><text x="10.02" y="1.67" class="f">it</text><text x="13.026" y="1.67" class="f">doesn&apos;t</text><text x="21.042" y="1.67" class="f">use,</text><text x="26.052" y="1.67" class="f">shrinking</text><text x="36.072" y="1.67" class="f">the</text><text x="40.08" y="1.67" class="f">attack</text><text x="47.094" y="1.67" class="f">surface</text><text x="55.11" y="1.67" class="f">available</text><text x="65.13" y="1.67" class="f">to</text><text x="68.136" y="1.67" class="f">injected</text><text x="77.154" y="1.67" class="f">or</text><text x="80.16" y="1.67" class="f">third-party</text><text x="92.184" y="1.67" class="f">script.</text></symbol><symbol id="35"><text y="1.67" class="f">---</text><text x="4.008" y="1.67" class="f">exposure</text><text x="13.026" y="1.67" class="f">---</text></symbol><symbol id="36"><text x="2.004" y="1.67" class="f">[HIGH]</text><text x="9.018" y="1.67" class="f">Exposed</text><text x="17.034" y="1.67" class="f">.env</text><text x="22.044" y="1.67" class="f">file</text></symbol><symbol id="37"><text x="6.012" y="1.67" class="f">A</text><text x="8.016" y="1.67" class="f">.env-style</text><text x="19.038" y="1.67" class="f">file</text><text x="24.048" y="1.67" class="f">is</text><text x="27.054" y="1.67" class="f">publicly</text><text x="36.072" y="1.67" class="f">accessible</text><text x="47.094" y="1.67" class="f">and</text><text x="51.102" y="1.67" class="f">looks</text><text x="57.114" y="1.67" class="f">like</text><text x="62.124" y="1.67" class="f">KEY=VALUE</text><text x="72.144" y="1.67" class="f">configuration.</text><text x="87.174" y="1.67" class="f">These</text><text x="93.186" y="1.67" class="f">files</text><text x="99.198" y="1.67" class="f">c</text></symbol><symbol id="38"><text y="1.67" class="f">ommonly</text><text x="8.016" y="1.67" class="f">contain</text><text x="16.032" y="1.67" class="f">database</text><text x="25.05" y="1.67" class="f">credentials,</text><text x="38.076" y="1.67" class="f">API</text><text x="42.084" y="1.67" class="f">keys,</text><text x="48.096" y="1.67" class="f">and</text><text x="52.104" y="1.67" class="f">secrets.</text><text x="61.122" y="1.67" class="f">Move</text><text x="66.132" y="1.67" class="f">it</text><text x="69.138" y="1.67" class="f">outside</text><text x="77.154" y="1.67" class="f">the</text><text x="81.162" y="1.67" class="f">web</text><text x="85.17" y="1.67" class="f">root</text><text x="90.18" y="1.67" class="f">and</text><text x="94.188" y="1.67" class="f">block</text></symbol><symbol id="39"><text y="1.67" class="f">dotfile</text><text x="8.016" y="1.67" class="f">access.</text></symbol><symbol id="40"><text y="1.67" class="f">Summary:</text></symbol><symbol id="41"><text x="2.004" y="1.67" class="f">HIGH:</text><text x="8.016" y="1.67" class="f">1</text></symbol><symbol id="a"><path fill="transparent" d="M0 0h100v40H0z"/></symbol></defs><path class="a" d="M0 0h100v86.84H0z"/><g style="animation-duration:2.958875s;animation-iteration-count:infinite;animation-name:h;animation-timing-function:steps(1,end)"><svg width="8400"><svg><use xlink:href="#a"/></svg><svg x="100"><use xlink:href="#a"/><use xlink:href="#1"/></svg><svg x="200"><use xlink:href="#a"/><use xlink:href="#1"/></svg><svg x="300"><use xlink:href="#a"/><text y="1.67" class="f">$</text><text x="2.004" y="1.67" class="f">g</text></svg><svg x="400"><use xlink:href="#a"/><text y="1.67" class="f">$</text><text x="2.004" y="1.67" class="f">gr</text></svg><svg x="500"><use xlink:href="#a"/><text y="1.67" class="f">$</text><text x="2.004" y="1.67" class="f">gre</text></svg><svg x="600"><use xlink:href="#a"/><text y="1.67" class="f">$</text><text x="2.004" y="1.67" class="f">gree</text></svg><svg x="700"><use xlink:href="#a"/><text y="1.67" class="f">$</text><text x="2.004" y="1.67" class="f">green</text></svg><svg x="800"><use xlink:href="#a"/><text y="1.67" class="f">$</text><text x="2.004" y="1.67" class="f">greenl</text></svg><svg x="900"><use xlink:href="#a"/><text y="1.67" class="f">$</text><text x="2.004" y="1.67" class="f">greenli</text></svg><svg x="1000"><use xlink:href="#a"/><text y="1.67" class="f">$</text><text x="2.004" y="1.67" class="f">greenlig</text></svg><svg x="1100"><use xlink:href="#a"/><text y="1.67" class="f">$</text><text x="2.004" y="1.67" class="f">greenligh</text></svg><svg x="1200"><use xlink:href="#a"/><use xlink:href="#2"/></svg><svg x="1300"><use xlink:href="#a"/><use xlink:href="#2"/></svg><svg x="1400"><use xlink:href="#a"/><text y="1.67" class="f">$</text><text x="2.004" y="1.67" class="f">greenlight</text><text x="13.026" y="1.67" class="f">s</text></svg><svg x="1500"><use xlink:href="#a"/><text y="1.67" class="f">$</text><text x="2.004" y="1.67" class="f">greenlight</text><text x="13.026" y="1.67" class="f">sc</text></svg><svg x="1600"><use xlink:href="#a"/><text y="1.67" class="f">$</text><text x="2.004" y="1.67" class="f">greenlight</text><text x="13.026" y="1.67" class="f">sca</text></svg><svg x="1700"><use xlink:href="#a"/><use xlink:href="#3"/></svg><svg x="1800"><use xlink:href="#a"/><use xlink:href="#3"/></svg><svg x="1900"><use xlink:href="#a"/><text y="1.67" class="f">$</text><text x="2.004" y="1.67" class="f">greenlight</text><text x="13.026" y="1.67" class="f">scan</text><text x="18.036" y="1.67" class="f">1</text></svg><svg x="2000"><use xlink:href="#a"/><text y="1.67" class="f">$</text><text x="2.004" y="1.67" class="f">greenlight</text><text x="13.026" y="1.67" class="f">scan</text><text x="18.036" y="1.67" class="f">12</text></svg><svg x="2100"><use xlink:href="#a"/><text y="1.67" class="f">$</text><text x="2.004" y="1.67" class="f">greenlight</text><text x="13.026" y="1.67" class="f">scan</text><text x="18.036" y="1.67" class="f">127</text></svg><svg x="2200"><use xlink:href="#a"/><text y="1.67" class="f">$</text><text x="2.004" y="1.67" class="f">greenlight</text><text x="13.026" y="1.67" class="f">scan</text><text x="18.036" y="1.67" class="f">127.</text></svg><svg x="2300"><use xlink:href="#a"/><text y="1.67" class="f">$</text><text x="2.004" y="1.67" class="f">greenlight</text><text x="13.026" y="1.67" class="f">scan</text><text x="18.036" y="1.67" class="f">127.0</text></svg><svg x="2400"><use xlink:href="#a"/><text y="1.67" class="f">$</text><text x="2.004" y="1.67" class="f">greenlight</text><text x="13.026" y="1.67" class="f">scan</text><text x="18.036" y="1.67" class="f">127.0.</text></svg><svg x="2500"><use xlink:href="#a"/><text y="1.67" class="f">$</text><text x="2.004" y="1.67" class="f">greenlight</text><text x="13.026" y="1.67" class="f">scan</text><text x="18.036" y="1.67" class="f">127.0.0</text></svg><svg x="2600"><use xlink:href="#a"/><text y="1.67" class="f">$</text><text x="2.004" y="1.67" class="f">greenlight</text><text x="13.026" y="1.67" class="f">scan</text><text x="18.036" y="1.67" class="f">127.0.0.</text></svg><svg x="2700"><use xlink:href="#a"/><text y="1.67" class="f">$</text><text x="2.004" y="1.67" class="f">greenlight</text><text x="13.026" y="1.67" class="f">scan</text><text x="18.036" y="1.67" class="f">127.0.0.1</text></svg><svg x="2800"><use xlink:href="#a"/><text y="1.67" class="f">$</text><text x="2.004" y="1.67" class="f">greenlight</text><text x="13.026" y="1.67" class="f">scan</text><text x="18.036" y="1.67" class="f">127.0.0.1:</text></svg><svg x="2900"><use xlink:href="#a"/><text y="1.67" class="f">$</text><text x="2.004" y="1.67" class="f">greenlight</text><text x="13.026" y="1.67" class="f">scan</text><text x="18.036" y="1.67" class="f">127.0.0.1:8</text></svg><svg x="3000"><use xlink:href="#a"/><text y="1.67" class="f">$</text><text x="2.004" y="1.67" class="f">greenlight</text><text x="13.026" y="1.67" class="f">scan</text><text x="18.036" y="1.67" class="f">127.0.0.1:87</text></svg><svg x="3100"><use xlink:href="#a"/><text y="1.67" class="f">$</text><text x="2.004" y="1.67" class="f">greenlight</text><text x="13.026" y="1.67" class="f">scan</text><text x="18.036" y="1.67" class="f">127.0.0.1:879</text></svg><svg x="3200"><use xlink:href="#a"/><use xlink:href="#4"/></svg><svg x="3300"><use xlink:href="#a"/><use xlink:href="#4"/></svg><svg x="3400"><use xlink:href="#a"/><text y="1.67" class="f">$</text><text x="2.004" y="1.67" class="f">greenlight</text><text x="13.026" y="1.67" class="f">scan</text><text x="18.036" y="1.67" class="f">127.0.0.1:8791</text><text x="33.066" y="1.67" class="f">-</text></svg><svg x="3500"><use xlink:href="#a"/><text y="1.67" class="f">$</text><text x="2.004" y="1.67" class="f">greenlight</text><text x="13.026" y="1.67" class="f">scan</text><text x="18.036" y="1.67" class="f">127.0.0.1:8791</text><text x="33.066" y="1.67" class="f">--</text></svg><svg x="3600"><use xlink:href="#a"/><text y="1.67" class="f">$</text><text x="2.004" y="1.67" class="f">greenlight</text><text x="13.026" y="1.67" class="f">scan</text><text x="18.036" y="1.67" class="f">127.0.0.1:8791</text><text x="33.066" y="1.67" class="f">--s</text></svg><svg x="3700"><use xlink:href="#a"/><text y="1.67" class="f">$</text><text x="2.004" y="1.67" class="f">greenlight</text><text x="13.026" y="1.67" class="f">scan</text><text x="18.036" y="1.67" class="f">127.0.0.1:8791</text><text x="33.066" y="1.67" class="f">--sc</text></svg><svg x="3800"><use xlink:href="#a"/><text y="1.67" class="f">$</text><text x="2.004" y="1.67" class="f">greenlight</text><text x="13.026" y="1.67" class="f">scan</text><text x="18.036" y="1.67" class="f">127.0.0.1:8791</text><text x="33.066" y="1.67" class="f">--sch</text></svg><svg x="3900"><use xlink:href="#a"/><text y="1.67" class="f">$</text><text x="2.004" y="1.67" class="f">greenlight</text><text x="13.026" y="1.67" class="f">scan</text><text x="18.036" y="1.67" class="f">127.0.0.1:8791</text><text x="33.066" y="1.67" class="f">--sche</text></svg><svg x="4000"><use xlink:href="#a"/><text y="1.67" class="f">$</text><text x="2.004" y="1.67" class="f">greenlight</text><text x="13.026" y="1.67" class="f">scan</text><text x="18.036" y="1.67" class="f">127.0.0.1:8791</text><text x="33.066" y="1.67" class="f">--schem</text></svg><svg x="4100"><use xlink:href="#a"/><use xlink:href="#5"/></svg><svg x="4200"><use xlink:href="#a"/><use xlink:href="#5"/></svg><svg x="4300"><use xlink:href="#a"/><text y="1.67" class="f">$</text><text x="2.004" y="1.67" class="f">greenlight</text><text x="13.026" y="1.67" class="f">scan</text><text x="18.036" y="1.67" class="f">127.0.0.1:8791</text><text x="33.066" y="1.67" class="f">--scheme</text><text x="42.084" y="1.67" class="f">h</text></svg><svg x="4400"><use xlink:href="#a"/><text y="1.67" class="f">$</text><text x="2.004" y="1.67" class="f">greenlight</text><text x="13.026" y="1.67" class="f">scan</text><text x="18.036" y="1.67" class="f">127.0.0.1:8791</text><text x="33.066" y="1.67" class="f">--scheme</text><text x="42.084" y="1.67" class="f">ht</text></svg><svg x="4500"><use xlink:href="#a"/><text y="1.67" class="f">$</text><text x="2.004" y="1.67" class="f">greenlight</text><text x="13.026" y="1.67" class="f">scan</text><text x="18.036" y="1.67" class="f">127.0.0.1:8791</text><text x="33.066" y="1.67" class="f">--scheme</text><text x="42.084" y="1.67" class="f">htt</text></svg><svg x="4600"><use xlink:href="#a"/><use xlink:href="#6"/></svg><svg x="4700"><use xlink:href="#a"/><use xlink:href="#6"/></svg><svg x="4800"><use xlink:href="#a"/><text y="1.67" class="f">$</text><text x="2.004" y="1.67" class="f">greenlight</text><text x="13.026" y="1.67" class="f">scan</text><text x="18.036" y="1.67" class="f">127.0.0.1:8791</text><text x="33.066" y="1.67" class="f">--scheme</text><text x="42.084" y="1.67" class="f">http</text><text x="47.094" y="1.67" class="f">-</text></svg><svg x="4900"><use xlink:href="#a"/><text y="1.67" class="f">$</text><text x="2.004" y="1.67" class="f">greenlight</text><text x="13.026" y="1.67" class="f">scan</text><text x="18.036" y="1.67" class="f">127.0.0.1:8791</text><text x="33.066" y="1.67" class="f">--scheme</text><text x="42.084" y="1.67" class="f">http</text><text x="47.094" y="1.67" class="f">--</text></svg><svg x="5000"><use xlink:href="#a"/><text y="1.67" class="f">$</text><text x="2.004" y="1.67" class="f">greenlight</text><text x="13.026" y="1.67" class="f">scan</text><text x="18.036" y="1.67" class="f">127.0.0.1:8791</text><text x="33.066" y="1.67" class="f">--scheme</text><text x="42.084" y="1.67" class="f">http</text><text x="47.094" y="1.67" class="f">--m</text></svg><svg x="5100"><use xlink:href="#a"/><text y="1.67" class="f">$</text><text x="2.004" y="1.67" class="f">greenlight</text><text x="13.026" y="1.67" class="f">scan</text><text x="18.036" y="1.67" class="f">127.0.0.1:8791</text><text x="33.066" y="1.67" class="f">--scheme</text><text x="42.084" y="1.67" class="f">http</text><text x="47.094" y="1.67" class="f">--mo</text></svg><svg x="5200"><use xlink:href="#a"/><text y="1.67" class="f">$</text><text x="2.004" y="1.67" class="f">greenlight</text><text x="13.026" y="1.67" class="f">scan</text><text x="18.036" y="1.67" class="f">127.0.0.1:8791</text><text x="33.066" y="1.67" class="f">--scheme</text><text x="42.084" y="1.67" class="f">http</text><text x="47.094" y="1.67" class="f">--mod</text></svg><svg x="5300"><use xlink:href="#a"/><text y="1.67" class="f">$</text><text x="2.004" y="1.67" class="f">greenlight</text><text x="13.026" y="1.67" class="f">scan</text><text x="18.036" y="1.67" class="f">127.0.0.1:8791</text><text x="33.066" y="1.67" class="f">--scheme</text><text x="42.084" y="1.67" class="f">http</text><text x="47.094" y="1.67" class="f">--modu</text></svg><svg x="5400"><use xlink:href="#a"/><text y="1.67" class="f">$</text><text x="2.004" y="1.67" class="f">greenlight</text><text x="13.026" y="1.67" class="f">scan</text><text x="18.036" y="1.67" class="f">127.0.0.1:8791</text><text x="33.066" y="1.67" class="f">--scheme</text><text x="42.084" y="1.67" class="f">http</text><text x="47.094" y="1.67" class="f">--modul</text></svg><svg x="5500"><use xlink:href="#a"/><text y="1.67" class="f">$</text><text x="2.004" y="1.67" class="f">greenlight</text><text x="13.026" y="1.67" class="f">scan</text><text x="18.036" y="1.67" class="f">127.0.0.1:8791</text><text x="33.066" y="1.67" class="f">--scheme</text><text x="42.084" y="1.67" class="f">http</text><text x="47.094" y="1.67" class="f">--module</text></svg><svg x="5600"><use xlink:href="#a"/><use xlink:href="#7"/></svg><svg x="5700"><use xlink:href="#a"/><use xlink:href="#7"/></svg><svg x="5800"><use xlink:href="#a"/><text y="1.67" class="f">$</text><text x="2.004" y="1.67" class="f">greenlight</text><text x="13.026" y="1.67" class="f">scan</text><text x="18.036" y="1.67" class="f">127.0.0.1:8791</text><text x="33.066" y="1.67" class="f">--scheme</text><text x="42.084" y="1.67" class="f">http</text><text x="47.094" y="1.67" class="f">--modules</text><text x="57.114" y="1.67" class="f">h</text></svg><svg x="5900"><use xlink:href="#a"/><text y="1.67" class="f">$</text><text x="2.004" y="1.67" class="f">greenlight</text><text x="13.026" y="1.67" class="f">scan</text><text x="18.036" y="1.67" class="f">127.0.0.1:8791</text><text x="33.066" y="1.67" class="f">--scheme</text><text x="42.084" y="1.67" class="f">http</text><text x="47.094" y="1.67" class="f">--modules</text><text x="57.114" y="1.67" class="f">he</text></svg><svg x="6000"><use xlink:href="#a"/><text y="1.67" class="f">$</text><text x="2.004" y="1.67" class="f">greenlight</text><text x="13.026" y="1.67" class="f">scan</text><text x="18.036" y="1.67" class="f">127.0.0.1:8791</text><text x="33.066" y="1.67" class="f">--scheme</text><text x="42.084" y="1.67" class="f">http</text><text x="47.094" y="1.67" class="f">--modules</text><text x="57.114" y="1.67" class="f">hea</text></svg><svg x="6100"><use xlink:href="#a"/><text y="1.67" class="f">$</text><text x="2.004" y="1.67" class="f">greenlight</text><text x="13.026" y="1.67" class="f">scan</text><text x="18.036" y="1.67" class="f">127.0.0.1:8791</text><text x="33.066" y="1.67" class="f">--scheme</text><text x="42.084" y="1.67" class="f">http</text><text x="47.094" y="1.67" class="f">--modules</text><text x="57.114" y="1.67" class="f">head</text></svg><svg x="6200"><use xlink:href="#a"/><text y="1.67" class="f">$</text><text x="2.004" y="1.67" class="f">greenlight</text><text x="13.026" y="1.67" class="f">scan</text><text x="18.036" y="1.67" class="f">127.0.0.1:8791</text><text x="33.066" y="1.67" class="f">--scheme</text><text x="42.084" y="1.67" class="f">http</text><text x="47.094" y="1.67" class="f">--modules</text><text x="57.114" y="1.67" class="f">heade</text></svg><svg x="6300"><use xlink:href="#a"/><text y="1.67" class="f">$</text><text x="2.004" y="1.67" class="f">greenlight</text><text x="13.026" y="1.67" class="f">scan</text><text x="18.036" y="1.67" class="f">127.0.0.1:8791</text><text x="33.066" y="1.67" class="f">--scheme</text><text x="42.084" y="1.67" class="f">http</text><text x="47.094" y="1.67" class="f">--modules</text><text x="57.114" y="1.67" class="f">header</text></svg><svg x="6400"><use xlink:href="#a"/><text y="1.67" class="f">$</text><text x="2.004" y="1.67" class="f">greenlight</text><text x="13.026" y="1.67" class="f">scan</text><text x="18.036" y="1.67" class="f">127.0.0.1:8791</text><text x="33.066" y="1.67" class="f">--scheme</text><text x="42.084" y="1.67" class="f">http</text><text x="47.094" y="1.67" class="f">--modules</text><text x="57.114" y="1.67" class="f">headers</text></svg><svg x="6500"><use xlink:href="#a"/><text y="1.67" class="f">$</text><text x="2.004" y="1.67" class="f">greenlight</text><text x="13.026" y="1.67" class="f">scan</text><text x="18.036" y="1.67" class="f">127.0.0.1:8791</text><text x="33.066" y="1.67" class="f">--scheme</text><text x="42.084" y="1.67" class="f">http</text><text x="47.094" y="1.67" class="f">--modules</text><text x="57.114" y="1.67" class="f">headers,</text></svg><svg x="6600"><use xlink:href="#a"/><text y="1.67" class="f">$</text><text x="2.004" y="1.67" class="f">greenlight</text><text x="13.026" y="1.67" class="f">scan</text><text x="18.036" y="1.67" class="f">127.0.0.1:8791</text><text x="33.066" y="1.67" class="f">--scheme</text><text x="42.084" y="1.67" class="f">http</text><text x="47.094" y="1.67" class="f">--modules</text><text x="57.114" y="1.67" class="f">headers,e</text></svg><svg x="6700"><use xlink:href="#a"/><text y="1.67" class="f">$</text><text x="2.004" y="1.67" class="f">greenlight</text><text x="13.026" y="1.67" class="f">scan</text><text x="18.036" y="1.67" class="f">127.0.0.1:8791</text><text x="33.066" y="1.67" class="f">--scheme</text><text x="42.084" y="1.67" class="f">http</text><text x="47.094" y="1.67" class="f">--modules</text><text x="57.114" y="1.67" class="f">headers,ex</text></svg><svg x="6800"><use xlink:href="#a"/><text y="1.67" class="f">$</text><text x="2.004" y="1.67" class="f">greenlight</text><text x="13.026" y="1.67" class="f">scan</text><text x="18.036" y="1.67" class="f">127.0.0.1:8791</text><text x="33.066" y="1.67" class="f">--scheme</text><text x="42.084" y="1.67" class="f">http</text><text x="47.094" y="1.67" class="f">--modules</text><text x="57.114" y="1.67" class="f">headers,exp</text></svg><svg x="6900"><use xlink:href="#a"/><text y="1.67" class="f">$</text><text x="2.004" y="1.67" class="f">greenlight</text><text x="13.026" y="1.67" class="f">scan</text><text x="18.036" y="1.67" class="f">127.0.0.1:8791</text><text x="33.066" y="1.67" class="f">--scheme</text><text x="42.084" y="1.67" class="f">http</text><text x="47.094" y="1.67" class="f">--modules</text><text x="57.114" y="1.67" class="f">headers,expo</text></svg><svg x="7000"><use xlink:href="#a"/><text y="1.67" class="f">$</text><text x="2.004" y="1.67" class="f">greenlight</text><text x="13.026" y="1.67" class="f">scan</text><text x="18.036" y="1.67" class="f">127.0.0.1:8791</text><text x="33.066" y="1.67" class="f">--scheme</text><text x="42.084" y="1.67" class="f">http</text><text x="47.094" y="1.67" class="f">--modules</text><text x="57.114" y="1.67" class="f">headers,expos</text></svg><svg x="7100"><use xlink:href="#a"/><text y="1.67" class="f">$</text><text x="2.004" y="1.67" class="f">greenlight</text><text x="13.026" y="1.67" class="f">scan</text><text x="18.036" y="1.67" class="f">127.0.0.1:8791</text><text x="33.066" y="1.67" class="f">--scheme</text><text x="42.084" y="1.67" class="f">http</text><text x="47.094" y="1.67" class="f">--modules</text><text x="57.114" y="1.67" class="f">headers,exposu</text></svg><svg x="7200"><use xlink:href="#a"/><text y="1.67" class="f">$</text><text x="2.004" y="1.67" class="f">greenlight</text><text x="13.026" y="1.67" class="f">scan</text><text x="18.036" y="1.67" class="f">127.0.0.1:8791</text><text x="33.066" y="1.67" class="f">--scheme</text><text x="42.084" y="1.67" class="f">http</text><text x="47.094" y="1.67" class="f">--modules</text><text x="57.114" y="1.67" class="f">headers,exposur</text></svg><svg x="7300"><use xlink:href="#a"/><use xlink:href="#8"/></svg><svg x="7400"><use xlink:href="#a"/><use xlink:href="#8"/></svg><svg x="7500"><use xlink:href="#a"/><use xlink:href="#8"/><use xlink:href="#9" y="2.171"/><use xlink:href="#10" y="4.342"/><use xlink:href="#11" y="6.513"/><use xlink:href="#12" y="8.684"/><use xlink:href="#13" y="10.855"/><use xlink:href="#14" y="13.026"/></svg><svg x="7600"><use xlink:href="#a"/><use xlink:href="#8"/><use xlink:href="#9" y="2.171"/><use xlink:href="#10" y="4.342"/><use xlink:href="#11" y="6.513"/><use xlink:href="#12" y="8.684"/><use xlink:href="#13" y="10.855"/><use xlink:href="#14" y="13.026"/><use xlink:href="#15" y="17.368"/></svg><svg x="7700"><use xlink:href="#a"/><use xlink:href="#8"/><use xlink:href="#9" y="2.171"/><use xlink:href="#10" y="4.342"/><use xlink:href="#11" y="6.513"/><use xlink:href="#12" y="8.684"/><use xlink:href="#13" y="10.855"/><use xlink:href="#14" y="13.026"/><use xlink:href="#15" y="17.368"/><use xlink:href="#16" y="19.539"/></svg><svg x="7800"><use xlink:href="#a"/><use xlink:href="#8"/><use xlink:href="#9" y="2.171"/><use xlink:href="#10" y="4.342"/><use xlink:href="#11" y="6.513"/><use xlink:href="#12" y="8.684"/><use xlink:href="#13" y="10.855"/><use xlink:href="#14" y="13.026"/><use xlink:href="#15" y="17.368"/><use xlink:href="#16" y="19.539"/><use xlink:href="#17" y="23.881"/></svg><svg x="7900"><use xlink:href="#a"/><use xlink:href="#8"/><use xlink:href="#9" y="2.171"/><use xlink:href="#10" y="4.342"/><use xlink:href="#11" y="6.513"/><use xlink:href="#12" y="8.684"/><use xlink:href="#13" y="10.855"/><use xlink:href="#14" y="13.026"/><use xlink:href="#15" y="17.368"/><use xlink:href="#16" y="19.539"/><use xlink:href="#17" y="23.881"/><use xlink:href="#18" y="26.052"/><use xlink:href="#19" y="28.223"/><use xlink:href="#20" y="30.394"/><use xlink:href="#21" y="32.565"/></svg><svg x="8000"><use xlink:href="#a"/><use xlink:href="#8"/><use xlink:href="#9" y="2.171"/><use xlink:href="#10" y="4.342"/><use xlink:href="#11" y="6.513"/><use xlink:href="#12" y="8.684"/><use xlink:href="#13" y="10.855"/><use xlink:href="#14" y="13.026"/><use xlink:href="#15" y="17.368"/><use xlink:href="#16" y="19.539"/><use xlink:href="#17" y="23.881"/><use xlink:href="#18" y="26.052"/><use xlink:href="#19" y="28.223"/><use xlink:href="#20" y="30.394"/><use xlink:href="#21" y="32.565"/><use xlink:href="#22" y="34.736"/><use xlink:href="#23" y="36.907"/><use xlink:href="#24" y="39.078"/><use xlink:href="#25" y="41.249"/></svg><svg x="8100"><use xlink:href="#a"/><use xlink:href="#8"/><use xlink:href="#9" y="2.171"/><use xlink:href="#10" y="4.342"/><use xlink:href="#11" y="6.513"/><use xlink:href="#12" y="8.684"/><use xlink:href="#13" y="10.855"/><use xlink:href="#14" y="13.026"/><use xlink:href="#15" y="17.368"/><use xlink:href="#16" y="19.539"/><use xlink:href="#17" y="23.881"/><use xlink:href="#18" y="26.052"/><use xlink:href="#19" y="28.223"/><use xlink:href="#20" y="30.394"/><use xlink:href="#21" y="32.565"/><use xlink:href="#22" y="34.736"/><use xlink:href="#23" y="36.907"/><use xlink:href="#24" y="39.078"/><use xlink:href="#25" y="41.249"/><use xlink:href="#26" y="43.42"/><use xlink:href="#27" y="45.591"/><use xlink:href="#28" y="47.762"/><use xlink:href="#29" y="49.933"/><use xlink:href="#30" y="52.104"/><use xlink:href="#31" y="54.275"/><use xlink:href="#32" y="56.446"/><use xlink:href="#33" y="58.617"/><use xlink:href="#34" y="60.788"/></svg><svg x="8200"><use xlink:href="#a"/><use xlink:href="#8"/><use xlink:href="#9" y="2.171"/><use xlink:href="#10" y="4.342"/><use xlink:href="#11" y="6.513"/><use xlink:href="#12" y="8.684"/><use xlink:href="#13" y="10.855"/><use xlink:href="#14" y="13.026"/><use xlink:href="#15" y="17.368"/><use xlink:href="#16" y="19.539"/><use xlink:href="#17" y="23.881"/><use xlink:href="#18" y="26.052"/><use xlink:href="#19" y="28.223"/><use xlink:href="#20" y="30.394"/><use xlink:href="#21" y="32.565"/><use xlink:href="#22" y="34.736"/><use xlink:href="#23" y="36.907"/><use xlink:href="#24" y="39.078"/><use xlink:href="#25" y="41.249"/><use xlink:href="#26" y="43.42"/><use xlink:href="#27" y="45.591"/><use xlink:href="#28" y="47.762"/><use xlink:href="#29" y="49.933"/><use xlink:href="#30" y="52.104"/><use xlink:href="#31" y="54.275"/><use xlink:href="#32" y="56.446"/><use xlink:href="#33" y="58.617"/><use xlink:href="#34" y="60.788"/><use xlink:href="#35" y="62.959"/><use xlink:href="#36" y="65.13"/><use xlink:href="#37" y="67.301"/><use xlink:href="#38" y="69.472"/><use xlink:href="#39" y="71.643"/><use xlink:href="#40" y="75.985"/><use xlink:href="#41" y="78.156"/></svg><svg x="8300"><use xlink:href="#a"/><use xlink:href="#9"/><use xlink:href="#10" y="2.171"/><use xlink:href="#11" y="4.342"/><use xlink:href="#12" y="6.513"/><use xlink:href="#13" y="8.684"/><use xlink:href="#14" y="10.855"/><use xlink:href="#15" y="15.197"/><use xlink:href="#16" y="17.368"/><use xlink:href="#17" y="21.71"/><use xlink:href="#18" y="23.881"/><use xlink:href="#19" y="26.052"/><use xlink:href="#20" y="28.223"/><use xlink:href="#21" y="30.394"/><use xlink:href="#22" y="32.565"/><use xlink:href="#23" y="34.736"/><use xlink:href="#24" y="36.907"/><use xlink:href="#25" y="39.078"/><use xlink:href="#26" y="41.249"/><use xlink:href="#27" y="43.42"/><use xlink:href="#28" y="45.591"/><use xlink:href="#29" y="47.762"/><use xlink:href="#30" y="49.933"/><use xlink:href="#31" y="52.104"/><use xlink:href="#32" y="54.275"/><use xlink:href="#33" y="56.446"/><use xlink:href="#34" y="58.617"/><use xlink:href="#35" y="60.788"/><use xlink:href="#36" y="62.959"/><use xlink:href="#37" y="65.13"/><use xlink:href="#38" y="67.301"/><use xlink:href="#39" y="69.472"/><use xlink:href="#40" y="73.814"/><use xlink:href="#41" y="75.985"/><text x="2.004" y="79.826" class="f">MEDIUM:</text><text x="10.02" y="79.826" class="f">2</text><text x="2.004" y="81.997" class="f">LOW:</text><text x="7.014" y="81.997" class="f">2</text><text x="2.004" y="84.168" class="f">INFO:</text><text x="8.016" y="84.168" class="f">1</text></svg></svg></g></g></svg></svg>